<svg id="Layer_1" data-name="Layer 1" xmlns="http://www.w3.org/2000/svg" width="229.15" height="154.86" viewBox="0 0 229.15 154.86">
  <defs>
    <style>
      .cls-1 {
        fill: #ffd800;
      }
    </style>
  </defs>
  <g>
    <g>
      <path class="cls-1" d="M63.19,9.23Q54.9,45.92,44.26,82q-3,10.32-6.27,20.57a1.26,1.26,0,0,0,2.09,1.21l1-1.07c1.12-1.15-.65-2.92-1.77-1.76l-1,1.07,2.09,1.21Q51.7,67.39,60.64,30.82q2.59-10.44,5-20.93c.35-1.57-2.06-2.23-2.41-.66Z"/>
      <path class="cls-1" d="M38.71,16.19A60.9,60.9,0,0,1,67.89,3c3.49-.55,7.56-1.11,10.84.55,5.46,2.78,6.11,10.16,3.91,15.23C79.89,25.17,73.81,30,68.22,33.75A69.86,69.86,0,0,1,46,43.62l1.21,2.08C58.49,36.47,74.46,32,88.77,35.29c6.14,1.43,12.34,4.41,16.25,9.51,4.33,5.65,4.6,13,1.8,19.43-3,7-9.06,11.86-15.76,15.16A77.6,77.6,0,0,1,69.14,86C54,88.43,37.49,86.7,24.39,78.2,13.25,70.93,4.55,58.82,3.3,45.39a38.87,38.87,0,0,1-.14-4.94c.06-1.61-2.44-1.61-2.5,0C.15,55,8,68.72,19.25,77.54,32.11,87.59,49,90.7,64.94,89A85.6,85.6,0,0,0,89,83c7.25-3,14.14-7.57,18.31-14.41,3.89-6.38,5.2-14.33,2.1-21.29-2.77-6.24-8.66-10.45-14.86-12.87-14.34-5.61-31.75-2.31-44.38,6a55.1,55.1,0,0,0-4.71,3.49c-1,.83.1,2.37,1.22,2.09a72,72,0,0,0,21.73-9.42c6.19-4,12.86-9.16,16.11-16C87.25,15,87.16,7.33,82.14,2.92,79.33.45,75.64-.14,72,0A54.94,54.94,0,0,0,60.24,2.16a63.38,63.38,0,0,0-23.3,12.26C35.7,15.42,37.48,17.2,38.71,16.19Z"/>
      <path class="cls-1" d="M111.72,63A76.57,76.57,0,0,1,132,42l-1.84-1.41-5,17.64c-.86,3-1.76,6-2.59,9.06-.57,2.08-.88,4.54,1,6,1.64,1.3,3.85.76,5.52-.19a17,17,0,0,0,4.77-4.75,84.61,84.61,0,0,0,8.42-13.23,85.72,85.72,0,0,0,6.44-16.59,1.25,1.25,0,0,0-2.41-.66q-8.52,26.81-14.46,54.36c-1.9,8.85-3.48,17.76-5.15,26.67-1.55,8.33-3.44,16.78-7.46,24.32-1.77,3.34-4.14,6.87-7.72,8.45a6.36,6.36,0,0,1-8.12-2.53c-3.73-5.91-1.83-14.33.06-20.52C108.51,112,120.73,99,132,86.2a188.36,188.36,0,0,0,16.16-20.65A142.52,142.52,0,0,0,160.2,43c.83-1.93,1.62-3.89,2.37-5.86l-2.41-.66-4.28,18a56.33,56.33,0,0,0-1.71,7.89,8.73,8.73,0,0,0,.85,5.08c2.8,4.76,8-.16,10.64-2.43a73.63,73.63,0,0,0,10.28-11.11A73.08,73.08,0,0,0,184.63,39l-2.28-1c-1.5,6.51-2.82,13.1-3.67,19.73-.55,4.23-.51,9.73,3.39,12.44,4.87,3.38,11.36-.62,15.8-2.94A113.08,113.08,0,0,0,213,57.74a115.17,115.17,0,0,0,15.17-13.51c1.1-1.17-.66-2.94-1.76-1.76a113,113,0,0,1-25.7,20.37q-3.51,2-7.15,3.79c-2.35,1.14-5,2.57-7.73,2.33-5-.44-5.14-6.46-4.77-10.22a162.05,162.05,0,0,1,3.7-20c.3-1.31-1.69-2.32-2.28-1A72.35,72.35,0,0,1,167.36,60c-1.6,1.6-11.42,11.66-10.65,2.21a64.1,64.1,0,0,1,1.61-7.08l4.28-18a1.25,1.25,0,0,0-2.41-.66,141.3,141.3,0,0,1-11.81,24,165,165,0,0,1-16.47,22C120.29,95.84,107.56,109,101.63,126a54.06,54.06,0,0,0-2.7,12.31,21.84,21.84,0,0,0,1.08,9.79,10.21,10.21,0,0,0,6,6.32c3.59,1.2,7.22-.35,9.94-2.72,3.14-2.74,5.2-6.54,6.88-10.29a72.1,72.1,0,0,0,4.16-12.3c2.22-8.86,3.48-17.94,5.26-26.9q5.7-28.65,14.21-56.67,1-3.48,2.16-7L146.21,38a83.69,83.69,0,0,1-11.58,25.17c-1.31,1.91-2.69,3.77-4.17,5.55-1.06,1.29-2.66,2.9-4.45,3-2.55.13-1-3.86-.66-5.09l2.28-7.88,5-17.41a1.27,1.27,0,0,0-1.83-1.41,79.66,79.66,0,0,0-21.16,21.87c-.88,1.36,1.28,2.61,2.15,1.26Z"/>
      <path class="cls-1" d="M164.86,7,174,26.71c.68,1.45,2.83.18,2.16-1.27L167,5.78c-.68-1.45-2.83-.19-2.16,1.26Z"/>
    </g>
    <g>
      <path class="cls-1" d="M149.25,102.39a6.74,6.74,0,0,1-2.4-1.29l.62-1.08a7.11,7.11,0,0,0,2.23,1.21,8.18,8.18,0,0,0,2.85.49,5.53,5.53,0,0,0,3.14-.7,2.22,2.22,0,0,0,1-2,1.81,1.81,0,0,0-.55-1.4,3.51,3.51,0,0,0-1.36-.76c-.54-.16-1.29-.33-2.24-.51a18.29,18.29,0,0,1-2.7-.65,4.24,4.24,0,0,1-1.76-1.13,3.09,3.09,0,0,1-.73-2.16,3.41,3.41,0,0,1,1.39-2.77,6.31,6.31,0,0,1,4-1.09,10,10,0,0,1,2.67.37,7.09,7.09,0,0,1,2.16,1l-.65,1.1a6.55,6.55,0,0,0-2-.94,7.89,7.89,0,0,0-2.27-.33,5.18,5.18,0,0,0-3,.73,2.32,2.32,0,0,0-1,1.92,1.91,1.91,0,0,0,.57,1.47,3.49,3.49,0,0,0,1.39.78,20.45,20.45,0,0,0,2.31.56,23.92,23.92,0,0,1,2.66.63,4.14,4.14,0,0,1,1.71,1.1A2.87,2.87,0,0,1,158,99a3.27,3.27,0,0,1-1.45,2.81,7,7,0,0,1-4.11,1.06A10.11,10.11,0,0,1,149.25,102.39Z"/>
      <path class="cls-1" d="M168.83,101.91a3.4,3.4,0,0,1-1.29.74,4.79,4.79,0,0,1-1.6.26,3.78,3.78,0,0,1-2.84-1,3.84,3.84,0,0,1-1-2.82V89.86h-2.59V88.7h2.59V85.63h1.35V88.7h4.49v1.16h-4.49v9.08a3,3,0,0,0,.67,2.09,2.49,2.49,0,0,0,1.95.71,3.12,3.12,0,0,0,2.19-.78Z"/>
      <path class="cls-1" d="M184.92,88.7v14.1h-1.29v-3a5.18,5.18,0,0,1-2.08,2.31,6.12,6.12,0,0,1-3.24.83,5.39,5.39,0,0,1-5.89-4.83,5.72,5.72,0,0,1,0-1.17V88.7h1.35v8.13a5,5,0,0,0,1.21,3.62,4.58,4.58,0,0,0,3.43,1.24,4.85,4.85,0,0,0,3.77-1.48,5.58,5.58,0,0,0,1.39-4V88.7Z"/>
      <path class="cls-1" d="M203.17,82.76v20h-1.32V99.48A6,6,0,0,1,199.5,102a6.55,6.55,0,0,1-3.43.9,6.93,6.93,0,0,1-3.56-.92,6.43,6.43,0,0,1-2.5-2.54A8,8,0,0,1,190,92a6.49,6.49,0,0,1,2.5-2.54,7.27,7.27,0,0,1,3.56-.9,6.49,6.49,0,0,1,3.39.89A6.38,6.38,0,0,1,201.82,92V82.76Zm-4.12,18.17a5.32,5.32,0,0,0,2-2.1,6.76,6.76,0,0,0,0-6.16,5.38,5.38,0,0,0-2-2.1,5.93,5.93,0,0,0-5.8,0,5.45,5.45,0,0,0-2,2.1,6.76,6.76,0,0,0,0,6.16,5.39,5.39,0,0,0,2,2.1A5.88,5.88,0,0,0,199.05,100.93Z"/>
      <path class="cls-1" d="M208.76,85a1,1,0,0,1-.32-.77,1.1,1.1,0,0,1,.32-.78,1.16,1.16,0,0,1,1.57,0,1,1,0,0,1,.32.77,1.06,1.06,0,0,1-.32.78,1,1,0,0,1-.79.32A1.06,1.06,0,0,1,208.76,85Zm.11,3.74h1.35v14.1h-1.35Z"/>
      <path class="cls-1" d="M217.82,102a6.6,6.6,0,0,1-2.53-2.55,8,8,0,0,1,0-7.38,6.8,6.8,0,0,1,2.53-2.55,7.61,7.61,0,0,1,7.21,0A6.74,6.74,0,0,1,227.55,92a7.84,7.84,0,0,1,0,7.38A6.61,6.61,0,0,1,225,102a7.51,7.51,0,0,1-7.21,0Zm6.5-1.06a5.32,5.32,0,0,0,2-2.1,6.76,6.76,0,0,0,0-6.16,5.38,5.38,0,0,0-2-2.1,5.93,5.93,0,0,0-5.8,0,5.45,5.45,0,0,0-2,2.1,6.76,6.76,0,0,0,0,6.16,5.39,5.39,0,0,0,2,2.1A5.88,5.88,0,0,0,224.32,101Z"/>
    </g>
  </g>
</svg>
